<svg xmlns="http://www.w3.org/2000/svg" viewBox="0 0 205.98 235.41"><title>delete</title><g id="Layer_2" data-name="Layer 2"><g id="Layer_1-2" data-name="Layer 1"><g id="delete"><path d="M123.22,191.27h11a5.52,5.52,0,0,0,5.51-5.52V86.44a5.52,5.52,0,0,0-5.51-5.52h-11a5.52,5.52,0,0,0-5.52,5.52v99.31A5.52,5.52,0,0,0,123.22,191.27ZM198.63,36.78H160.74L145.1,10.71A22.07,22.07,0,0,0,126.17,0H79.81A22.08,22.08,0,0,0,60.89,10.71L45.25,36.78H7.36A7.36,7.36,0,0,0,0,44.14V51.5a7.35,7.35,0,0,0,7.36,7.35h7.35V213.34a22.07,22.07,0,0,0,22.07,22.07H169.2a22.07,22.07,0,0,0,22.07-22.07h0V58.85h7.36A7.35,7.35,0,0,0,206,51.5V44.14A7.36,7.36,0,0,0,198.63,36.78ZM79.16,23.41a2.77,2.77,0,0,1,2.38-1.34h43.21a2.77,2.77,0,0,1,2.37,1.34l8,13.37h-64Zm90,189.93H36.78V58.85H169.2ZM71.73,191.27h11a5.52,5.52,0,0,0,5.52-5.52V86.44a5.52,5.52,0,0,0-5.52-5.52h-11a5.52,5.52,0,0,0-5.52,5.52v99.31A5.52,5.52,0,0,0,71.73,191.27Z"/></g></g></g></svg>