<svg xmlns="http://www.w3.org/2000/svg" viewBox="0 0 194.13 194.17"><title>edit</title><g id="Layer_2" data-name="Layer 2"><g id="Layer_1-2" data-name="Layer 1"><g id="edit"><path d="M186.16,66.82,63.59,189.39,21.4,194.05A19.28,19.28,0,0,1,.12,172.77l4.67-42.19L127.35,8A27.24,27.24,0,0,1,166,8l20.16,20.16a27.33,27.33,0,0,1,0,38.64ZM140,81.25,112.93,54.13,26.21,140.89,22.8,171.37,53.28,168Zm30.25-37.2L150.13,23.88a4.88,4.88,0,0,0-6.91,0L128.8,38.31l27.11,27.11L170.34,51A5,5,0,0,0,170.29,44.05Z"/></g></g></g></svg>