<svg xmlns="http://www.w3.org/2000/svg" viewBox="0 0 188.45 179.68"><title>move</title><g id="Layer_2" data-name="Layer 2"><g id="Layer_1-2" data-name="Layer 1"><g id="move"><path d="M6.73,33h175c3.71,0,6.73-3.28,6.73-7.33V7.33c0-4.05-3-7.33-6.73-7.33H6.73C3,0,0,3.28,0,7.33V25.67C0,29.72,3,33,6.73,33Zm0,73.34h175c3.71,0,6.73-3.28,6.73-7.33V80.67c0-4-3-7.33-6.73-7.33H6.73C3,73.34,0,76.62,0,80.67V99C0,103.06,3,106.34,6.73,106.34Zm0,73.34h175c3.71,0,6.73-3.29,6.73-7.34V154c0-4-3-7.33-6.73-7.33H6.73C3,146.68,0,150,0,154v18.33C0,176.39,3,179.68,6.73,179.68Z"/></g></g></g></svg>