<svg xmlns="http://www.w3.org/2000/svg" viewBox="0 0 206.67 206.67"><title>save</title><g id="Layer_2" data-name="Layer 2"><g id="Layer_1-2" data-name="Layer 1"><path d="M184.52,0H22.14A22.14,22.14,0,0,0,0,22.14V184.52a22.15,22.15,0,0,0,22.14,22.15H184.52a22.15,22.15,0,0,0,22.15-22.15V22.14A22.15,22.15,0,0,0,184.52,0Zm0,184.52H22.14V22.14H184.52ZM168,73,88.36,152a5.53,5.53,0,0,1-7.83,0L38.66,109.74a5.53,5.53,0,0,1,0-7.83L49.17,91.52a5.54,5.54,0,0,1,7.83,0l27.58,27.81,65.21-64.69a5.52,5.52,0,0,1,7.82,0L168,65.19A5.53,5.53,0,0,1,168,73Z"/></g></g></svg>